<?xml version="1.0" encoding="utf-8"?>
<!-- Generator: Adobe Illustrator 27.1.1, SVG Export Plug-In . SVG Version: 6.00 Build 0)  -->
<svg version="1.1" id="Capa_1" xmlns="http://www.w3.org/2000/svg" xmlns:xlink="http://www.w3.org/1999/xlink" x="0px" y="0px"
	 viewBox="0 0 512 512" style="enable-background:new 0 0 512 512;" xml:space="preserve">
<style type="text/css">
	.st0{fill:#FFFFFF;}
</style>
<g>
	<path id="Path_2525" class="st0" d="M490.7,460.5h4.8l-9.3-14l0,0c5.7,0,8.7-3.6,8.7-8c0-0.2,0-0.4,0-0.5c0-6-3.6-8.9-11.1-8.9h-12
		v31.5h4.5v-13.7h5.6L490.7,460.5z M481.6,443.2h-5.2v-10.6h6.7c3.4,0,7.4,0.6,7.4,5.1C490.4,442.8,486.4,443.2,481.6,443.2"/>
	<path id="Path_2520" class="st0" d="M368.9,406.9h-64.1V306.4c0-24-0.4-54.8-33.4-54.8c-33.4,0-38.5,26.1-38.5,53.1v102.2h-64.1
		V200.3h61.6v28.2h0.9c12.6-21.5,35.9-34.3,60.8-33.4c65,0,77,42.8,77,98.4L368.9,406.9z M96.3,172.1c-20.6,0-37.2-16.7-37.2-37.2
		s16.7-37.2,37.2-37.2s37.2,16.7,37.2,37.2C133.5,155.4,116.9,172.1,96.3,172.1L96.3,172.1 M128.4,406.9H64.2V200.3h64.2V406.9z
		 M400.9,38H31.9C14.5,37.8,0.2,51.8,0,69.2v370.4c0.2,17.5,14.5,31.4,31.9,31.2h368.9c17.5,0.2,31.8-13.8,32.1-31.2V69.2
		C432.7,51.8,418.3,37.8,400.9,38"/>
	<path id="Path_2526" class="st0" d="M482.2,415c-16.3,0.1-29.4,13.5-29.2,29.8c0.1,16.3,13.5,29.4,29.8,29.2
		c16.3-0.1,29.4-13.5,29.2-29.8c-0.1-16.1-13.2-29.1-29.2-29.2H482.2 M482.9,470.6c-14.3,0.2-26.8-11.1-27-25.4
		c-0.2-14.3,11.2-26.1,25.5-26.3c14.3-0.2,26.1,11.2,26.3,25.5c0,0.1,0,0.3,0,0.4C507.9,458.7,496.9,470.3,482.9,470.6h-0.7"/>
</g>
</svg>
